<svg width="344" height="228" viewBox="0 0 344 228" fill="none" xmlns="http://www.w3.org/2000/svg">
<rect width="344" height="228" fill="#F5F5F5"/>
<rect width="344" height="228" fill="#F5F5F0"/>
<line x1="268.5" y1="191" x2="268.5" y2="151" stroke="#4C5B5C" stroke-width="3"/>
<line x1="268.5" y1="217" x2="268.5" y2="197" stroke="#4C5B5C" stroke-width="3"/>
<path d="M107.5 30.5V13" stroke="#4C5B5C" stroke-width="3"/>
<line x1="107.5" y1="117" x2="107.5" y2="37" stroke="#4C5B5C" stroke-width="3"/>
<line x1="186.48" y1="92.4212" x2="109.48" y2="118.421" stroke="#4C5B5C" stroke-width="3"/>
<line x1="244.49" y1="72.4178" x2="189.49" y2="91.4178" stroke="#4C5B5C" stroke-width="3"/>
<line x1="186.645" y1="138.457" x2="108.645" y2="119.457" stroke="#4C5B5C" stroke-width="3"/>
<line x1="245.661" y1="151.461" x2="189.661" y2="138.461" stroke="#4C5B5C" stroke-width="3"/>
<circle cx="109" cy="117" r="30" fill="#3891A6"/>
<rect width="34" height="16" transform="matrix(1 0 0 -1 253 159)" fill="#3891A6"/>
<rect width="34" height="16" transform="matrix(1 0 0 -1 253 79)" fill="#3891A6"/>
<circle cx="268.5" cy="217.5" r="4.5" fill="#4C5B5C"/>
<circle cx="107.5" cy="14.5" r="4.5" fill="#4C5B5C"/>
<path d="M100.119 27C117.952 27 133.536 30.6667 146.869 38C160.369 45.1667 170.869 55.3333 178.369 68.5C186.036 81.6667 189.869 97 189.869 114.5C189.869 132 186.036 147.333 178.369 160.5C170.869 173.5 160.369 183.667 146.869 191C133.536 198.333 117.952 202 100.119 202H46.6191L46.3691 194.5C46.3691 194.5 48.1191 194.5 51.6191 194.5C55.2858 194.5 59.7858 194.5 65.1191 194.5C70.6191 194.5 76.0358 194.5 81.3691 194.5C86.7025 194.5 91.1191 194.5 94.6191 194.5C98.2858 194.5 100.119 194.5 100.119 194.5C114.452 194.5 126.869 191.167 137.369 184.5C148.036 177.833 156.286 168.5 162.119 156.5C168.119 144.5 171.119 130.5 171.119 114.5C171.119 98.5 168.119 84.5 162.119 72.5C156.286 60.5 148.036 51.1667 137.369 44.5C126.702 37.8333 114.286 34.5 100.119 34.5C100.119 34.5 98.2025 34.5 94.3691 34.5C90.7025 34.5 86.0358 34.5 80.3691 34.5C74.8691 34.5 69.2858 34.5 63.6191 34.5C58.1191 34.5 53.4525 34.5 49.6191 34.5C45.7858 34.5 43.8691 34.5 43.8691 34.5V27H100.119ZM50.8691 27V202H34.6191V27H50.8691ZM35.3691 183.75V202H15.3691V199.5C15.3691 199.5 15.8691 199.5 16.8691 199.5C18.0358 199.5 18.6191 199.5 18.6191 199.5C22.9525 199.5 26.6191 198 29.6191 195C32.7858 191.833 34.4525 188.083 34.6191 183.75H35.3691ZM35.3691 45.25H34.6191C34.6191 40.9167 33.0358 37.25 29.8691 34.25C26.7025 31.0833 22.9525 29.5 18.6191 29.5C18.6191 29.5 18.1191 29.5 17.1191 29.5C16.1191 29.5 15.6191 29.5 15.6191 29.5L15.3691 27H35.3691V45.25ZM235.396 27H261.896C273.563 27 283.396 28.75 291.396 32.25C299.563 35.75 305.73 40.6667 309.896 47C314.063 53.1667 316.146 60.4167 316.146 68.75C316.146 75.75 314.813 81.9167 312.146 87.25C309.48 92.4167 306.063 96.6667 301.896 100C297.73 103.167 293.313 105.417 288.646 106.75C297.48 108.083 305.063 111 311.396 115.5C317.896 120 322.813 125.667 326.146 132.5C329.646 139.167 331.396 146.667 331.396 155C331.396 164.333 329.146 172.583 324.646 179.75C320.146 186.75 313.48 192.25 304.646 196.25C295.98 200.083 285.48 202 273.146 202H245.396C245.396 202 245.396 201.25 245.396 199.75C245.563 198.25 245.646 196.75 245.646 195.25C245.646 193.75 245.646 193 245.646 193H272.146C280.813 193 288.146 191.5 294.146 188.5C300.146 185.333 304.73 180.75 307.896 174.75C311.063 168.75 312.646 161.583 312.646 153.25C312.646 143.917 310.813 136.333 307.146 130.5C303.646 124.667 299.063 120.25 293.396 117.25C287.73 114.25 281.563 112.25 274.896 111.25C268.396 110.083 262.146 109.5 256.146 109.5V107.25C259.98 107.25 264.23 106.833 268.896 106C273.563 105.167 278.063 103.5 282.396 101C286.73 98.5 290.313 94.8333 293.146 90C295.98 85 297.396 78.5 297.396 70.5C297.396 63 295.98 56.5833 293.146 51.25C290.48 45.9167 286.396 41.9167 280.896 39.25C275.563 36.4167 268.896 35 260.896 35H237.896C237.896 34.8333 237.646 34.1667 237.146 33C236.813 31.6667 236.396 30.3333 235.896 29C235.563 27.6667 235.396 27 235.396 27ZM247.646 27V202H231.396V27H247.646ZM232.146 183.75V202H212.146L212.396 199.5C212.73 199.5 213.23 199.5 213.896 199.5C214.73 199.5 215.23 199.5 215.396 199.5C219.73 199.5 223.48 198 226.646 195C229.813 191.833 231.396 188.083 231.396 183.75H232.146ZM232.146 45.25H231.396C231.396 40.9167 229.813 37.25 226.646 34.25C223.48 31.0833 219.73 29.5 215.396 29.5C215.23 29.5 214.73 29.5 213.896 29.5C213.23 29.5 212.73 29.5 212.396 29.5L212.146 27H232.146V45.25Z" fill="#4C5B5C"/>
</svg>
